<?xml version="1.0" encoding="UTF-8" standalone="no"?>
<!-- Created with Inkscape (http://www.inkscape.org/) -->

<svg
   version="1.1"
   width="100%"
   height="100%"
   viewBox="0 0 48 48"
   id="图层_1"
   xml:space="preserve"
   sodipodi:docname="blink-installer.svg"
   inkscape:version="1.2.1 (9c6d41e410, 2022-07-14)"
   xmlns:inkscape="http://www.inkscape.org/namespaces/inkscape"
   xmlns:sodipodi="http://sodipodi.sourceforge.net/DTD/sodipodi-0.dtd"
   xmlns="http://www.w3.org/2000/svg"
   xmlns:svg="http://www.w3.org/2000/svg"
   xmlns:rdf="http://www.w3.org/1999/02/22-rdf-syntax-ns#"
   xmlns:cc="http://creativecommons.org/ns#"
   xmlns:dc="http://purl.org/dc/elements/1.1/"><sodipodi:namedview
     id="namedview34"
     pagecolor="#ffffff"
     bordercolor="#666666"
     borderopacity="1.0"
     inkscape:showpageshadow="2"
     inkscape:pageopacity="0.0"
     inkscape:pagecheckerboard="0"
     inkscape:deskcolor="#d1d1d1"
     showgrid="false"
     inkscape:zoom="16.291667"
     inkscape:cx="24.153452"
     inkscape:cy="24"
     inkscape:window-width="1920"
     inkscape:window-height="1011"
     inkscape:window-x="0"
     inkscape:window-y="0"
     inkscape:window-maximized="1"
     inkscape:current-layer="g15" /><metadata
     id="metadata63"><rdf:RDF><cc:Work
         rdf:about=""><dc:format>image/svg+xml</dc:format><dc:type
           rdf:resource="http://purl.org/dc/dcmitype/StillImage" /></cc:Work></rdf:RDF></metadata><defs
     id="defs61" /><g
     id="g3"><g
       id="g5"
       style="opacity:0.5;display:none"><rect
         width="48"
         height="48"
         x="0"
         y="-0.0049999999"
         id="rect7"
         style="opacity:0.4;display:inline" /></g><g
       id="g13"
       transform="translate(0.27981138,-4.859415)"><g
         id="g15"
         transform="translate(-0.50735294,-1.2559143)"><g
           id="g25"><linearGradient
             x1="24"
             y1="19.1285"
             x2="24"
             y2="45.128502"
             id="SVGID_1_"
             gradientUnits="userSpaceOnUse"><stop
               id="stop28"
               style="stop-color:#c58639;stop-opacity:1"
               offset="0" /><stop
               id="stop30"
               style="stop-color:#e3a95f;stop-opacity:1"
               offset="0.97000003" /><stop
               id="stop32"
               style="stop-color:#a85b1d;stop-opacity:1"
               offset="1" /></linearGradient><rect
             width="36"
             height="26"
             x="6"
             y="18.995001"
             id="rect34"
             style="fill:url(#SVGID_1_)" /></g><linearGradient
           x1="23.9904"
           y1="18.057699"
           x2="23.9904"
           y2="27.057699"
           id="SVGID_2_"
           gradientUnits="userSpaceOnUse"><stop
             id="stop37"
             style="stop-color:#ffcc71;stop-opacity:1"
             offset="0" /><stop
             id="stop39"
             style="stop-color:#ffce6f;stop-opacity:1"
             offset="0.92860001" /><stop
             id="stop41"
             style="stop-color:#a86328;stop-opacity:1"
             offset="1" /></linearGradient><polygon
           points="45.996,26.995 1.985,26.995 5.985,17.995 41.985,17.995 "
           id="polygon43"
           style="fill:url(#SVGID_2_)" /><g
           id="g45"
           style="opacity:0.25"><g
             aria-label="Blink"
             id="text369"
             style="font-size:10px;line-height:1.25;font-family:Amiri;-inkscape-font-specification:Amiri"><path
               d="m 16.196831,32.500773 q 0.33,0 0.68,0.08 0.35,0.07 0.64,0.24 0.29,0.16 0.47,0.44 0.18,0.28 0.18,0.7 0,0.37 -0.18,0.67 -0.17,0.3 -0.41,0.49 -0.23,0.19 -0.4,0.26 -0.03,0.02 0,0.04 0.18,0.01 0.42,0.12 0.24,0.11 0.47,0.32 0.24,0.2 0.39,0.49 0.15,0.29 0.15,0.65 0,0.42 -0.15,0.78 -0.14,0.36 -0.5,0.66 -0.35,0.29 -0.92,0.41 -0.57,0.11 -1.13,0.12 h -2.25 q -0.04,-0.04 -0.04,-0.14 0.01,-0.1 0.04,-0.14 0.06,0 0.22,-0.01 0.16,-0.02 0.3,-0.06 0.15,-0.04 0.16,-0.09 0.04,-0.12 0.04,-0.31 0.01,-0.19 0.01,-0.41 v -4.17 q 0,-0.22 -0.01,-0.41 0,-0.2 -0.04,-0.32 -0.01,-0.06 -0.16,-0.09 -0.14,-0.03 -0.3,-0.04 -0.16,-0.02 -0.22,-0.02 -0.03,-0.04 -0.04,-0.14 0,-0.1 0.04,-0.14 0.3,0.01 0.59,0.03 0.29,0.01 0.57,0.01 0.29,0 0.62,-0.01 0.33,-0.01 0.76,-0.01 z m -0.96,3.2 v 2.12 q 0,0.07 0,0.22 0.01,0.14 0.03,0.27 0.02,0.13 0.05,0.17 0.11,0.12 0.3,0.15 0.2,0.03 0.47,0.03 0.37,0 0.72,-0.11 0.36,-0.11 0.6,-0.42 0.24,-0.32 0.24,-0.91 0,-0.37 -0.14,-0.71 -0.14,-0.35 -0.54,-0.58 -0.39,-0.23 -1.14,-0.23 z m 0,-0.37 h 0.81 q 0.44,0 0.71,-0.17 0.27,-0.17 0.39,-0.43 0.13,-0.27 0.13,-0.55 0,-0.65 -0.42,-1 -0.41,-0.36 -1.09,-0.36 -0.09,0 -0.28,0.01 -0.18,0.01 -0.21,0.08 -0.03,0.08 -0.04,0.25 0,0.17 0,0.36 0,0.04 0,0.07 0,0.03 0,0.06 z"
               id="path183" /><path
               d="m 19.836801,33.490773 q 0,-0.11 -0.01,-0.26 0,-0.16 -0.04,-0.25 -0.04,-0.11 -0.22,-0.14 -0.17,-0.03 -0.37,-0.03 -0.01,0 -0.02,-0.12 0,-0.13 0.03,-0.14 0.37,-0.04 0.72,-0.14 0.35,-0.11 0.66,-0.25 0.04,0 0.07,0.06 0.04,0.05 0.04,0.1 0,0 -0.06,0.22 -0.05,0.22 -0.05,0.63 v 4.64 q 0,0.22 0,0.41 0.01,0.19 0.05,0.31 0.02,0.05 0.14,0.09 0.13,0.04 0.27,0.06 0.15,0.01 0.21,0.01 0.03,0.04 0.03,0.14 0.01,0.1 -0.03,0.14 -0.3,-0.02 -0.53,-0.03 -0.23,-0.02 -0.52,-0.02 -0.28,0 -0.51,0.02 -0.22,0.01 -0.52,0.03 -0.04,-0.04 -0.04,-0.14 0.01,-0.1 0.04,-0.14 0.06,0 0.2,-0.01 0.14,-0.02 0.27,-0.06 0.13,-0.04 0.14,-0.09 0.04,-0.12 0.04,-0.31 0.01,-0.19 0.01,-0.41 z"
               id="path185" /><path
               d="m 22.286787,33.150773 q 0,-0.2 0.14,-0.34 0.15,-0.15 0.35,-0.15 0.2,0 0.34,0.15 0.15,0.14 0.15,0.34 0,0.2 -0.15,0.35 -0.14,0.14 -0.34,0.14 -0.2,0 -0.35,-0.14 -0.14,-0.15 -0.14,-0.35 z m 0.94,4.66 q 0,0.22 0,0.41 0.01,0.19 0.05,0.31 0.02,0.05 0.14,0.09 0.13,0.04 0.27,0.06 0.14,0.01 0.2,0.01 0.03,0.04 0.03,0.14 0.01,0.1 -0.03,0.14 -0.3,-0.02 -0.53,-0.03 -0.22,-0.02 -0.51,-0.02 -0.28,0 -0.51,0.02 -0.23,0.01 -0.53,0.03 -0.04,-0.04 -0.04,-0.14 0.01,-0.1 0.04,-0.14 0.06,0 0.2,-0.01 0.15,-0.02 0.28,-0.06 0.13,-0.04 0.14,-0.09 0.04,-0.12 0.04,-0.31 0.01,-0.19 0.01,-0.41 v -1.82 q 0,-0.1 -0.01,-0.26 0,-0.16 -0.04,-0.25 -0.03,-0.09 -0.17,-0.12 -0.14,-0.04 -0.28,-0.04 -0.14,-0.01 -0.18,-0.01 -0.01,-0.02 -0.02,-0.12 -0.01,-0.1 0.02,-0.14 0.38,-0.05 0.74,-0.15 0.36,-0.1 0.65,-0.26 0.04,0 0.07,0.06 0.04,0.06 0.04,0.1 0,0.03 -0.02,0.17 -0.02,0.14 -0.04,0.28 -0.01,0.14 -0.01,0.19 z"
               id="path187" /><path
               d="m 27.236773,34.660773 q 0.53,0 0.8,0.22 0.27,0.22 0.36,0.68 0.1,0.46 0.1,1.17 v 1.08 q 0,0.22 0,0.41 0.01,0.19 0.05,0.31 0.02,0.05 0.14,0.09 0.13,0.04 0.27,0.06 0.14,0.01 0.2,0.01 0.03,0.04 0.03,0.14 0.01,0.1 -0.03,0.14 -0.3,-0.02 -0.53,-0.03 -0.22,-0.02 -0.51,-0.02 -0.28,0 -0.51,0.02 -0.23,0.01 -0.53,0.03 -0.04,-0.04 -0.04,-0.14 0.01,-0.1 0.04,-0.14 0.06,0 0.2,-0.01 0.15,-0.02 0.28,-0.06 0.13,-0.04 0.14,-0.09 0.04,-0.12 0.04,-0.31 0.01,-0.19 0.01,-0.41 v -0.98 q 0,-0.61 -0.08,-0.95 -0.08,-0.35 -0.29,-0.5 -0.21,-0.15 -0.59,-0.15 -0.18,0 -0.4,0.12 -0.21,0.11 -0.37,0.24 -0.16,0.13 -0.16,0.18 v 2.04 q 0,0.22 0,0.41 0.01,0.19 0.05,0.31 0.02,0.05 0.14,0.09 0.13,0.04 0.27,0.06 0.14,0.01 0.2,0.01 0.03,0.04 0.03,0.14 0.01,0.1 -0.03,0.14 -0.3,-0.02 -0.53,-0.03 -0.22,-0.02 -0.51,-0.02 -0.28,0 -0.51,0.02 -0.23,0.01 -0.53,0.03 -0.04,-0.04 -0.04,-0.14 0.01,-0.1 0.04,-0.14 0.06,0 0.2,-0.01 0.15,-0.02 0.28,-0.06 0.13,-0.04 0.14,-0.09 0.04,-0.12 0.04,-0.31 0.01,-0.19 0.01,-0.41 v -1.78 q 0,-0.1 -0.01,-0.28 0,-0.18 -0.04,-0.27 -0.03,-0.09 -0.17,-0.12 -0.14,-0.04 -0.28,-0.04 -0.14,-0.01 -0.18,-0.01 -0.01,-0.02 -0.02,-0.12 -0.01,-0.1 0.02,-0.14 0.38,-0.05 0.74,-0.15 0.36,-0.1 0.65,-0.26 0.04,0 0.07,0.06 0.04,0.06 0.04,0.1 0,0.03 -0.02,0.16 -0.01,0.12 -0.03,0.24 -0.01,0.12 -0.01,0.16 0,0.04 0.02,0.04 0.01,0 0.03,-0.02 0.1,-0.11 0.32,-0.28 0.23,-0.17 0.5,-0.3 0.27,-0.14 0.5,-0.14 z"
               id="path189" /><path
               d="m 30.896764,37.810773 q 0,0.22 0,0.41 0.01,0.19 0.05,0.31 0.02,0.05 0.14,0.09 0.13,0.04 0.27,0.06 0.15,0.01 0.21,0.01 0.03,0.04 0.03,0.14 0.01,0.1 -0.03,0.14 -0.3,-0.02 -0.53,-0.03 -0.23,-0.02 -0.52,-0.02 -0.28,0 -0.51,0.02 -0.22,0.01 -0.52,0.03 -0.04,-0.04 -0.04,-0.14 0.01,-0.1 0.04,-0.14 0.06,0 0.2,-0.01 0.14,-0.02 0.27,-0.06 0.13,-0.04 0.14,-0.09 0.04,-0.12 0.04,-0.31 0.01,-0.19 0.01,-0.41 v -4.32 q 0,-0.11 -0.01,-0.26 0,-0.16 -0.04,-0.25 -0.04,-0.11 -0.22,-0.14 -0.17,-0.03 -0.37,-0.03 -0.01,0 -0.02,-0.12 0,-0.13 0.03,-0.14 0.37,-0.04 0.72,-0.14 0.35,-0.11 0.66,-0.25 0.04,0 0.07,0.06 0.04,0.05 0.04,0.1 0,0 -0.06,0.22 -0.05,0.22 -0.05,0.63 v 3.48 q 0.13,-0.05 0.34,-0.22 0.22,-0.17 0.47,-0.38 0.38,-0.32 0.63,-0.53 0.26,-0.21 0.26,-0.28 0,-0.08 -0.1,-0.11 -0.09,-0.03 -0.2,-0.04 -0.11,-0.02 -0.16,-0.02 -0.04,-0.05 -0.04,-0.16 0.01,-0.11 0.05,-0.12 0.21,0.02 0.46,0.04 0.25,0.01 0.48,0.01 0.51,0 0.86,-0.05 0.03,0.04 0.02,0.15 0,0.1 -0.02,0.13 -0.1,0 -0.35,0.06 -0.24,0.06 -0.4,0.17 -0.04,0.03 -0.21,0.15 -0.17,0.12 -0.41,0.3 -0.23,0.18 -0.49,0.38 -0.25,0.2 -0.47,0.38 0.37,0.39 0.73,0.8 0.36,0.4 0.64,0.71 0.28,0.3 0.39,0.4 0.19,0.16 0.44,0.22 0.26,0.06 0.45,0.05 0.02,0.02 0.02,0.11 0.01,0.08 -0.01,0.12 -0.05,0.02 -0.24,0.04 -0.19,0.02 -0.39,0.02 -0.43,0 -0.76,-0.15 -0.33,-0.16 -0.44,-0.28 0,0 -0.14,-0.14 -0.13,-0.15 -0.35,-0.38 -0.22,-0.24 -0.46,-0.5 -0.24,-0.26 -0.45,-0.49 -0.03,-0.04 -0.09,-0.06 -0.06,-0.03 -0.06,-0.03 z"
               id="path191" /></g></g></g></g></g></svg>
